# xmcd CD database file
#
# Track frame offsets:
#	182
#	18710
#	36450
#	56282
#	75172
#	93605
#	112817
#	133087
#	148040
#	167242
#	190062
#	212645
#	232877
#	251515
#
# Disc length: 3592 seconds
#
# Revision: 0
# Processed by: cddbd v1.5PL3 Copyright (c) Steve Scherf et al.
# Submitted via: CDex 1.51
#
DISCID=b80e060e
DTITLE=Various Artist - RAP 200%
DYEAR=1900
DGENRE=Rap
TTITLE0=WHO AM I?
TTITLE1=RUFFNECK
TTITLE2=KEEP YA HEAD UP
TTITLE3=THE BONNIE AND CLYDE THEME
TTITLE4=CAPS GET PEELED
TTITLE5=BOOTI CALL
TTITLE6=GOOD VIBRATIONS
TTITLE7=FREAKIT
TTITLE8=BORN TO ROLL
TTITLE9=4 BETTER OR 4 WORSE
TTITLE10=WE CAME TO MOVE YA
TTITLE11=INFORMER
TTITLE12=BOOM SHAK-A-TACK(DANCEHALL REMIX)
TTITLE13=NOTHIN' BUT A "G"THANG
EXTD=
EXTT0=
EXTT1=
EXTT2=
EXTT3=
EXTT4=
EXTT5=
EXTT6=
EXTT7=
EXTT8=
EXTT9=
EXTT10=
EXTT11=
EXTT12=
EXTT13=
PLAYORDER=
